<?xml version="1.0" encoding="UTF-8"?>
<svg id="Layer_1" data-name="Layer 1" xmlns="http://www.w3.org/2000/svg" viewBox="0 0 48 48">
  <circle cx="24" cy="24" r="22" fill="#ffa221" stroke-width="0"/>
  <path d="M27,42c-11.598,0-21-9.402-21-21,0-6.911,3.353-13.023,8.505-16.85C7.108,7.694,2,15.25,2,24c0,12.15,9.85,22,22,22,8.75,0,16.306-5.109,19.85-12.505-3.827,5.152-9.939,8.505-16.85,8.505Z" fill="#ff8200" stroke-width="0"/>
  <circle cx="24" cy="24" r="20" fill="#ffc343" stroke-width="0"/>
  <path d="M27,42c-11.598,0-21-9.402-21-21,0-3.257.763-6.328,2.086-9.078-2.553,3.358-4.086,7.534-4.086,12.078,0,11.046,8.954,20,20,20,4.544,0,8.72-1.533,12.079-4.086-2.751,1.323-5.822,2.086-9.079,2.086Z" fill="#ffa221" stroke-width="0"/>
  <path d="M38.967,24h-8.044c-.5,0-.913-.372-.985-.866-.226-1.558-1.052-2.923-2.233-3.848-.388-.304-.49-.846-.244-1.273l4.021-6.972c.294-.509.956-.65,1.444-.322,2.019,1.362,3.709,3.166,4.936,5.281,1.228,2.131,1.948,4.517,2.107,6.967.036.564-.435,1.033-1,1.033Z" fill="#555e77" stroke-width="0"/>
  <path d="M20.296,19.285c-1.181.926-2.007,2.29-2.233,3.848-.072.495-.485.866-.985.866h-8.044c-.565,0-1.037-.469-1-1.033.158-2.45.879-4.836,2.107-6.967,1.227-2.115,2.916-3.919,4.936-5.281.487-.329,1.15-.187,1.444.322l4.021,6.972c.246.427.144.969-.244,1.273Z" fill="#555e77" stroke-width="0"/>
  <path d="M31.484,36.964c.282.49.111,1.132-.395,1.382-2.198,1.084-4.624,1.653-7.088,1.653s-4.89-.569-7.088-1.653c-.507-.25-.678-.893-.395-1.382l4.02-6.971c.247-.429.77-.611,1.228-.424.688.28,1.441.431,2.235.431s1.547-.151,2.235-.431c.459-.186.981-.005,1.228.424l4.02,6.971Z" fill="#555e77" stroke-width="0"/>
  <circle cx="24" cy="24" r="3" fill="#555e77" stroke-width="0"/>
</svg>