<?xml version="1.0" encoding="UTF-8" standalone="no"?> <svg width="24" height="24" viewBox="0 0 24 24" fill="none" xmlns="http://www.w3.org/2000/svg">
<path d="M21.3536 3.35356L16.2071 8.50002H19V9.50002H14.5V5.00002H15.5V7.79292L20.6465 2.64645L21.3536 3.35356Z" fill="black"/>
<path d="M5 14.5H9.50002L9.5 19L8.5 19L8.50001 16.2071L3.35353 21.3536L2.64642 20.6465L7.79286 15.5H5V14.5Z" fill="black"/>
<path d="M9.5 5.00002V9.50002H5L5 8.50002H7.79291L2.64647 3.35358L3.35358 2.64647L8.5 7.79289L8.5 5.00002H9.5Z" fill="black"/>
<path d="M16.2855 15.5L21.3379 20.1314L20.6622 20.8686L15.5 16.1365V19H14.5V14.5H19V15.5H16.2855Z" fill="black"/>
</svg>
